<svg xmlns="http://www.w3.org/2000/svg" viewBox="0 0 222.03 44">
  <defs>
    <style>.cls-1{fill:#0965a1;}.cls-2{fill:#08659f;}</style>
  </defs>
  <title>Asset 1</title>
  <g id="Layer_2" data-name="Layer 2">
    <g id="Layer_1-2" data-name="Layer 1">
      <path class="cls-1" d="M0,44H12V33.87h3V23H11.83l.14-7.3s3.11-2.9,5.86,0c.14,4.2,0,28.31,0,28.31H29l0-23.64S29,10.81,26,7C24.42,5,19.66,3.08,15.46,3,9.55,2.95,4.25,5,2.82,7.32,2.13,8.41,0,11.43,0,18.11,0,41.5,0,44,0,44Z"/>
      <rect class="cls-1" x="36.01" y="3.75" width="11" height="39.96"/>
      <path class="cls-1" d="M52.95,43.71H64.1V32.78H69V21.85H64.1l-.07-5s.29-2,2-2.1a17.71,17.71,0,0,1,3,0v-11a17.65,17.65,0,0,0-5.57.51,21.58,21.58,0,0,0-4.42,2c-.44.23-5.72,3.77-6.08,9s0,13.46,0,13.46v15Z"/>
      <path class="cls-1" d="M89.87,32.63V43.71H85S74.21,43.3,73.13,33a30.33,30.33,0,0,1-.12-5c.52-5.77,1.84-8.11,7.31-11.46,2.94-1.8,5.75-1.83,8.48-1.75,5.1.15,9,2.27,10,3.17,2.06,1.87,4.27,3.74,4.21,8.38-.1,7.24,0,17.43,0,17.43H92V28.62a4.36,4.36,0,0,0-.43-2.14c-.56-1.13-2.13-1.07-3.43-1.09a5.22,5.22,0,0,0-2.73.44,3.3,3.3,0,0,0-1.55,3.38,4.93,4.93,0,0,0,.49,2.44A2.07,2.07,0,0,0,86,32.71,35.41,35.41,0,0,0,89.87,32.63Z"/>
      <path class="cls-1" d="M189.53,32.63V43.71h-4.87S173.88,43.3,172.79,33a30.56,30.56,0,0,1-.12-5c.52-5.77,1.84-8.11,7.31-11.46,2.94-1.8,5.75-1.83,8.48-1.75,5.1.15,9,2.27,10,3.17,2.06,1.87,4.27,3.74,4.21,8.38-.1,7.24,0,17.43,0,17.43h-11V28.62a4.36,4.36,0,0,0-.43-2.14c-.56-1.13-2.13-1.07-3.43-1.09a5.22,5.22,0,0,0-2.73.44,3.3,3.3,0,0,0-1.55,3.38,4.93,4.93,0,0,0,.49,2.44,2.07,2.07,0,0,0,1.64,1.06A35.44,35.44,0,0,0,189.53,32.63Z"/>
      <polygon class="cls-1" points="108.33 3.71 108.33 14.59 118.46 14.59 118.46 43.71 129.58 43.71 129.58 14.71 138.46 14.71 138.46 3.71 108.33 3.71"/>
      <path class="cls-1" d="M141.79,3.71v40h11v-16s-.29-2.43,1.59-2.43c2.13,0,2.54.08,2.54,2.33V43.71h10.88V24.55a13,13,0,0,0-3.33-8.25,9.75,9.75,0,0,0-4.8-2,8.27,8.27,0,0,0-3.53.28,10.65,10.65,0,0,0-3.14,2.2c-.2.29-.2-.08-.2-.09,0-1.5,0-6.9,0-13h-11Z"/>
      <rect class="cls-2" x="210.08" y="14.71" width="11" height="29"/>
      <ellipse class="cls-2" cx="215.67" cy="6.3" rx="6.36" ry="6.3"/>
    </g>
  </g>
</svg>